# MagicaVoxel @ Ephtracy

# group
o 

# material
mtllib Bomber Radar.mtl
usemtl palette

# normals
vn -1 0 0
vn 1 0 0
vn 0 1 0
vn 0 -1 0
vn 0 0 1
vn 0 0 -1

# texcoords
vt 0.541016 0.5
vt 0.689453 0.5
vt 0.751953 0.5
vt 0.841797 0.5
vt 0.923828 0.5
vt 0.935547 0.5

# verts
v -2 2 1
v -2 -1 1
v -2 -2 1
v -2 2 0
v -2 -1 0
v -2 -2 0
v 2 2 1
v 2 0 1
v 2 -2 1
v 2 2 0
v 2 0 0
v 2 -2 0
v -2 2 1
v -2 2 0
v 1 2 1
v 1 2 0
v 2 2 1
v 2 2 0
v -2 -2 1
v -2 -2 0
v 0 -2 1
v 0 -2 0
v 2 -2 1
v 2 -2 0
v -2 2 1
v 1 2 1
v 2 2 1
v -1 1 1
v 0 1 1
v -1 0 1
v 0 0 1
v 1 0 1
v 2 0 1
v -2 -1 1
v -1 -1 1
v 0 -1 1
v 1 -1 1
v -2 -2 1
v 0 -2 1
v 2 -2 1
v -2 2 0
v 1 2 0
v 2 2 0
v -1 1 0
v 0 1 0
v -1 0 0
v 0 0 0
v 1 0 0
v 2 0 0
v -2 -1 0
v -1 -1 0
v 0 -1 0
v 1 -1 0
v -2 -2 0
v 0 -2 0
v 2 -2 0

# faces
f 4/3/1 2/3/1 1/3/1
f 5/2/1 3/2/1 2/2/1
f 5/3/1 2/3/1 4/3/1
f 6/2/1 3/2/1 5/2/1
f 7/1/2 8/1/2 10/1/2
f 8/6/2 9/6/2 11/6/2
f 10/1/2 8/1/2 11/1/2
f 11/6/2 9/6/2 12/6/2
f 15/3/3 14/3/3 13/3/3
f 16/3/3 14/3/3 15/3/3
f 17/1/3 16/1/3 15/1/3
f 18/1/3 16/1/3 17/1/3
f 19/2/4 20/2/4 21/2/4
f 21/2/4 20/2/4 22/2/4
f 21/6/4 22/6/4 23/6/4
f 23/6/4 22/6/4 24/6/4
f 28/3/5 26/3/5 25/3/5
f 29/3/5 26/3/5 28/3/5
f 30/3/5 28/3/5 25/3/5
f 30/4/5 29/4/5 28/4/5
f 31/3/5 26/3/5 29/3/5
f 31/4/5 29/4/5 30/4/5
f 32/1/5 27/1/5 26/1/5
f 32/3/5 26/3/5 31/3/5
f 33/1/5 27/1/5 32/1/5
f 34/3/5 30/3/5 25/3/5
f 35/5/5 31/5/5 30/5/5
f 35/3/5 30/3/5 34/3/5
f 36/3/5 32/3/5 31/3/5
f 36/5/5 31/5/5 35/5/5
f 37/6/5 33/6/5 32/6/5
f 37/3/5 32/3/5 36/3/5
f 38/2/5 35/2/5 34/2/5
f 38/2/5 36/2/5 35/2/5
f 39/6/5 37/6/5 36/6/5
f 39/2/5 36/2/5 38/2/5
f 40/6/5 33/6/5 37/6/5
f 40/6/5 37/6/5 39/6/5
f 41/3/6 42/3/6 44/3/6
f 44/3/6 42/3/6 45/3/6
f 41/3/6 44/3/6 46/3/6
f 44/4/6 45/4/6 46/4/6
f 45/3/6 42/3/6 47/3/6
f 46/4/6 45/4/6 47/4/6
f 42/1/6 43/1/6 48/1/6
f 47/3/6 42/3/6 48/3/6
f 48/1/6 43/1/6 49/1/6
f 41/3/6 46/3/6 50/3/6
f 46/5/6 47/5/6 51/5/6
f 50/3/6 46/3/6 51/3/6
f 47/3/6 48/3/6 52/3/6
f 51/5/6 47/5/6 52/5/6
f 48/6/6 49/6/6 53/6/6
f 52/3/6 48/3/6 53/3/6
f 50/2/6 51/2/6 54/2/6
f 51/2/6 52/2/6 54/2/6
f 52/6/6 53/6/6 55/6/6
f 54/2/6 52/2/6 55/2/6
f 53/6/6 49/6/6 56/6/6
f 55/6/6 53/6/6 56/6/6
