# MagicaVoxel @ Ephtracy

# group
o 

# material
mtllib Player Shot.mtl
usemtl palette

# normals
vn -1 0 0
vn 1 0 0
vn 0 1 0
vn 0 -1 0
vn 0 0 1
vn 0 0 -1

# texcoords
vt 0.306641 0.5
vt 0.958984 0.5

# verts
v -5 2 2
v -5 -2 2
v -5 2 -2
v -5 -2 -2
v -3 2 3
v -3 -2 3
v -3 3 2
v -3 2 2
v -3 -2 2
v -3 -3 2
v -3 3 -2
v -3 2 -2
v -3 -2 -2
v -3 -3 -2
v -3 2 -3
v -3 -2 -3
v -2 2 5
v -2 -2 5
v -2 3 3
v -2 2 3
v -2 -2 3
v -2 -3 3
v -2 5 2
v -2 3 2
v -2 2 2
v -2 -2 2
v -2 -3 2
v -2 -5 2
v -2 5 -2
v -2 3 -2
v -2 2 -2
v -2 -2 -2
v -2 -3 -2
v -2 -5 -2
v -2 3 -3
v -2 2 -3
v -2 -2 -3
v -2 -3 -3
v -2 2 -5
v -2 -2 -5
v 2 2 5
v 2 -2 5
v 2 3 3
v 2 2 3
v 2 -2 3
v 2 -3 3
v 2 5 2
v 2 3 2
v 2 2 2
v 2 -2 2
v 2 -3 2
v 2 -5 2
v 2 5 -2
v 2 3 -2
v 2 2 -2
v 2 -2 -2
v 2 -3 -2
v 2 -5 -2
v 2 3 -3
v 2 2 -3
v 2 -2 -3
v 2 -3 -3
v 2 2 -5
v 2 -2 -5
v 3 2 3
v 3 -2 3
v 3 3 2
v 3 2 2
v 3 -2 2
v 3 -3 2
v 3 3 -2
v 3 2 -2
v 3 -2 -2
v 3 -3 -2
v 3 2 -3
v 3 -2 -3
v 5 2 2
v 5 -2 2
v 5 2 -2
v 5 -2 -2
v -2 5 2
v -2 5 -2
v 2 5 2
v 2 5 -2
v -3 3 2
v -3 3 -2
v -2 3 3
v -2 3 2
v -2 3 -2
v -2 3 -3
v 2 3 3
v 2 3 2
v 2 3 -2
v 2 3 -3
v 3 3 2
v 3 3 -2
v -5 2 2
v -5 2 -2
v -3 2 3
v -3 2 2
v -3 2 -2
v -3 2 -3
v -2 2 5
v -2 2 3
v -2 2 2
v -2 2 -2
v -2 2 -3
v -2 2 -5
v 2 2 5
v 2 2 3
v 2 2 2
v 2 2 -2
v 2 2 -3
v 2 2 -5
v 3 2 3
v 3 2 2
v 3 2 -2
v 3 2 -3
v 5 2 2
v 5 2 -2
v -5 -2 2
v -5 -2 -2
v -3 -2 3
v -3 -2 2
v -3 -2 -2
v -3 -2 -3
v -2 -2 5
v -2 -2 3
v -2 -2 2
v -2 -2 -2
v -2 -2 -3
v -2 -2 -5
v 2 -2 5
v 2 -2 3
v 2 -2 2
v 2 -2 -2
v 2 -2 -3
v 2 -2 -5
v 3 -2 3
v 3 -2 2
v 3 -2 -2
v 3 -2 -3
v 5 -2 2
v 5 -2 -2
v -3 -3 2
v -3 -3 -2
v -2 -3 3
v -2 -3 2
v -2 -3 -2
v -2 -3 -3
v 2 -3 3
v 2 -3 2
v 2 -3 -2
v 2 -3 -3
v 3 -3 2
v 3 -3 -2
v -2 -5 2
v -2 -5 -2
v 2 -5 2
v 2 -5 -2
v -2 2 5
v 2 2 5
v -2 -2 5
v 2 -2 5
v -2 3 3
v 2 3 3
v -3 2 3
v -2 2 3
v 2 2 3
v 3 2 3
v -3 -2 3
v -2 -2 3
v 2 -2 3
v 3 -2 3
v -2 -3 3
v 2 -3 3
v -2 5 2
v 2 5 2
v -3 3 2
v -2 3 2
v 2 3 2
v 3 3 2
v -5 2 2
v -3 2 2
v -2 2 2
v 2 2 2
v 3 2 2
v 5 2 2
v -5 -2 2
v -3 -2 2
v -2 -2 2
v 2 -2 2
v 3 -2 2
v 5 -2 2
v -3 -3 2
v -2 -3 2
v 2 -3 2
v 3 -3 2
v -2 -5 2
v 2 -5 2
v -2 5 -2
v 2 5 -2
v -3 3 -2
v -2 3 -2
v 2 3 -2
v 3 3 -2
v -5 2 -2
v -3 2 -2
v -2 2 -2
v 2 2 -2
v 3 2 -2
v 5 2 -2
v -5 -2 -2
v -3 -2 -2
v -2 -2 -2
v 2 -2 -2
v 3 -2 -2
v 5 -2 -2
v -3 -3 -2
v -2 -3 -2
v 2 -3 -2
v 3 -3 -2
v -2 -5 -2
v 2 -5 -2
v -2 3 -3
v 2 3 -3
v -3 2 -3
v -2 2 -3
v 2 2 -3
v 3 2 -3
v -3 -2 -3
v -2 -2 -3
v 2 -2 -3
v 3 -2 -3
v -2 -3 -3
v 2 -3 -3
v -2 2 -5
v 2 2 -5
v -2 -2 -5
v 2 -2 -5

# faces
f 3/1/1 2/1/1 1/1/1
f 4/1/1 2/1/1 3/1/1
f 8/2/1 6/2/1 5/2/1
f 9/2/1 6/2/1 8/2/1
f 11/2/1 8/2/1 7/2/1
f 12/2/1 8/2/1 11/2/1
f 13/2/1 10/2/1 9/2/1
f 14/2/1 10/2/1 13/2/1
f 15/2/1 13/2/1 12/2/1
f 16/2/1 13/2/1 15/2/1
f 20/1/1 18/1/1 17/1/1
f 21/1/1 18/1/1 20/1/1
f 24/2/1 20/2/1 19/2/1
f 25/2/1 20/2/1 24/2/1
f 26/2/1 22/2/1 21/2/1
f 27/2/1 22/2/1 26/2/1
f 29/1/1 24/1/1 23/1/1
f 30/1/1 24/1/1 29/1/1
f 33/1/1 28/1/1 27/1/1
f 34/1/1 28/1/1 33/1/1
f 35/2/1 31/2/1 30/2/1
f 36/2/1 31/2/1 35/2/1
f 37/2/1 33/2/1 32/2/1
f 38/2/1 33/2/1 37/2/1
f 39/1/1 37/1/1 36/1/1
f 40/1/1 37/1/1 39/1/1
f 41/1/2 42/1/2 44/1/2
f 44/1/2 42/1/2 45/1/2
f 43/2/2 44/2/2 48/2/2
f 48/2/2 44/2/2 49/2/2
f 45/2/2 46/2/2 50/2/2
f 50/2/2 46/2/2 51/2/2
f 47/1/2 48/1/2 53/1/2
f 53/1/2 48/1/2 54/1/2
f 51/1/2 52/1/2 57/1/2
f 57/1/2 52/1/2 58/1/2
f 54/2/2 55/2/2 59/2/2
f 59/2/2 55/2/2 60/2/2
f 56/2/2 57/2/2 61/2/2
f 61/2/2 57/2/2 62/2/2
f 60/1/2 61/1/2 63/1/2
f 63/1/2 61/1/2 64/1/2
f 65/2/2 66/2/2 68/2/2
f 68/2/2 66/2/2 69/2/2
f 67/2/2 68/2/2 71/2/2
f 71/2/2 68/2/2 72/2/2
f 69/2/2 70/2/2 73/2/2
f 73/2/2 70/2/2 74/2/2
f 72/2/2 73/2/2 75/2/2
f 75/2/2 73/2/2 76/2/2
f 77/1/2 78/1/2 79/1/2
f 79/1/2 78/1/2 80/1/2
f 83/1/3 82/1/3 81/1/3
f 84/1/3 82/1/3 83/1/3
f 88/2/3 86/2/3 85/2/3
f 89/2/3 86/2/3 88/2/3
f 91/2/3 88/2/3 87/2/3
f 92/2/3 88/2/3 91/2/3
f 93/2/3 90/2/3 89/2/3
f 94/2/3 90/2/3 93/2/3
f 95/2/3 93/2/3 92/2/3
f 96/2/3 93/2/3 95/2/3
f 100/1/3 98/1/3 97/1/3
f 101/1/3 98/1/3 100/1/3
f 104/2/3 100/2/3 99/2/3
f 105/2/3 100/2/3 104/2/3
f 106/2/3 102/2/3 101/2/3
f 107/2/3 102/2/3 106/2/3
f 109/1/3 104/1/3 103/1/3
f 110/1/3 104/1/3 109/1/3
f 113/1/3 108/1/3 107/1/3
f 114/1/3 108/1/3 113/1/3
f 115/2/3 111/2/3 110/2/3
f 116/2/3 111/2/3 115/2/3
f 117/2/3 113/2/3 112/2/3
f 118/2/3 113/2/3 117/2/3
f 119/1/3 117/1/3 116/1/3
f 120/1/3 117/1/3 119/1/3
f 121/1/4 122/1/4 124/1/4
f 124/1/4 122/1/4 125/1/4
f 123/2/4 124/2/4 128/2/4
f 128/2/4 124/2/4 129/2/4
f 125/2/4 126/2/4 130/2/4
f 130/2/4 126/2/4 131/2/4
f 127/1/4 128/1/4 133/1/4
f 133/1/4 128/1/4 134/1/4
f 131/1/4 132/1/4 137/1/4
f 137/1/4 132/1/4 138/1/4
f 134/2/4 135/2/4 139/2/4
f 139/2/4 135/2/4 140/2/4
f 136/2/4 137/2/4 141/2/4
f 141/2/4 137/2/4 142/2/4
f 140/1/4 141/1/4 143/1/4
f 143/1/4 141/1/4 144/1/4
f 145/2/4 146/2/4 148/2/4
f 148/2/4 146/2/4 149/2/4
f 147/2/4 148/2/4 151/2/4
f 151/2/4 148/2/4 152/2/4
f 149/2/4 150/2/4 153/2/4
f 153/2/4 150/2/4 154/2/4
f 152/2/4 153/2/4 155/2/4
f 155/2/4 153/2/4 156/2/4
f 157/1/4 158/1/4 159/1/4
f 159/1/4 158/1/4 160/1/4
f 163/1/5 162/1/5 161/1/5
f 164/1/5 162/1/5 163/1/5
f 168/2/5 166/2/5 165/2/5
f 169/2/5 166/2/5 168/2/5
f 171/2/5 168/2/5 167/2/5
f 172/2/5 168/2/5 171/2/5
f 173/2/5 170/2/5 169/2/5
f 174/2/5 170/2/5 173/2/5
f 175/2/5 173/2/5 172/2/5
f 176/2/5 173/2/5 175/2/5
f 180/1/5 178/1/5 177/1/5
f 181/1/5 178/1/5 180/1/5
f 184/2/5 180/2/5 179/2/5
f 185/2/5 180/2/5 184/2/5
f 186/2/5 182/2/5 181/2/5
f 187/2/5 182/2/5 186/2/5
f 189/1/5 184/1/5 183/1/5
f 190/1/5 184/1/5 189/1/5
f 193/1/5 188/1/5 187/1/5
f 194/1/5 188/1/5 193/1/5
f 195/2/5 191/2/5 190/2/5
f 196/2/5 191/2/5 195/2/5
f 197/2/5 193/2/5 192/2/5
f 198/2/5 193/2/5 197/2/5
f 199/1/5 197/1/5 196/1/5
f 200/1/5 197/1/5 199/1/5
f 201/1/6 202/1/6 204/1/6
f 204/1/6 202/1/6 205/1/6
f 203/2/6 204/2/6 208/2/6
f 208/2/6 204/2/6 209/2/6
f 205/2/6 206/2/6 210/2/6
f 210/2/6 206/2/6 211/2/6
f 207/1/6 208/1/6 213/1/6
f 213/1/6 208/1/6 214/1/6
f 211/1/6 212/1/6 217/1/6
f 217/1/6 212/1/6 218/1/6
f 214/2/6 215/2/6 219/2/6
f 219/2/6 215/2/6 220/2/6
f 216/2/6 217/2/6 221/2/6
f 221/2/6 217/2/6 222/2/6
f 220/1/6 221/1/6 223/1/6
f 223/1/6 221/1/6 224/1/6
f 225/2/6 226/2/6 228/2/6
f 228/2/6 226/2/6 229/2/6
f 227/2/6 228/2/6 231/2/6
f 231/2/6 228/2/6 232/2/6
f 229/2/6 230/2/6 233/2/6
f 233/2/6 230/2/6 234/2/6
f 232/2/6 233/2/6 235/2/6
f 235/2/6 233/2/6 236/2/6
f 237/1/6 238/1/6 239/1/6
f 239/1/6 238/1/6 240/1/6
