# MagicaVoxel @ Ephtracy

# group
o 

# material
mtllib BombIcon.mtl
usemtl palette

# normals
vn -1 0 0
vn 1 0 0
vn 0 1 0
vn 0 -1 0
vn 0 0 1
vn 0 0 -1

# texcoords
vt 0.470703 0.5
vt 0.845703 0.5
vt 0.962891 0.5
vt 0.974609 0.5

# verts
v -10 7 1
v -10 3 1
v -10 1 1
v -10 -2 1
v -10 -4 1
v -10 -8 1
v -10 7 0
v -10 3 0
v -10 1 0
v -10 -2 0
v -10 -4 0
v -10 -8 0
v -9 3 1
v -9 1 1
v -9 -2 1
v -9 -4 1
v -9 3 0
v -9 1 0
v -9 -2 0
v -9 -4 0
v -6 5 1
v -6 4 1
v -6 -5 1
v -6 -6 1
v -6 5 0
v -6 4 0
v -6 -5 0
v -6 -6 0
v -9 7 1
v -9 6 1
v -9 -7 1
v -9 -8 1
v -9 7 0
v -9 6 0
v -9 -7 0
v -9 -8 0
v -8 6 1
v -8 5 1
v -8 -6 1
v -8 -7 1
v -8 6 0
v -8 5 0
v -8 -6 0
v -8 -7 0
v -7 5 1
v -7 4 1
v -7 -5 1
v -7 -6 1
v -7 5 0
v -7 4 0
v -7 -5 0
v -7 -6 0
v 4 5 1
v 4 4 1
v 4 -5 1
v 4 -6 1
v 4 5 0
v 4 4 0
v 4 -5 0
v 4 -6 0
v 6 4 1
v 6 3 1
v 6 -4 1
v 6 -5 1
v 6 4 0
v 6 3 0
v 6 -4 0
v 6 -5 0
v 8 3 1
v 8 2 1
v 8 -3 1
v 8 -4 1
v 8 3 0
v 8 2 0
v 8 -3 0
v 8 -4 0
v 9 2 1
v 9 1 1
v 9 -2 1
v 9 -3 1
v 9 2 0
v 9 1 0
v 9 -2 0
v 9 -3 0
v 10 1 1
v 10 -2 1
v 10 1 0
v 10 -2 0
v -10 7 1
v -10 7 0
v -9 7 1
v -9 7 0
v -9 6 1
v -9 6 0
v -8 6 1
v -8 6 0
v -8 5 1
v -8 5 0
v -7 5 1
v -7 5 0
v -6 5 1
v -6 5 0
v 4 5 1
v 4 5 0
v -7 4 1
v -7 4 0
v -6 4 1
v -6 4 0
v 4 4 1
v 4 4 0
v 6 4 1
v 6 4 0
v 6 3 1
v 6 3 0
v 8 3 1
v 8 3 0
v 8 2 1
v 8 2 0
v 9 2 1
v 9 2 0
v -10 1 1
v -10 1 0
v -9 1 1
v -9 1 0
v 9 1 1
v 9 1 0
v 10 1 1
v 10 1 0
v -10 -4 1
v -10 -4 0
v -9 -4 1
v -9 -4 0
v -10 3 1
v -10 3 0
v -9 3 1
v -9 3 0
v -10 -2 1
v -10 -2 0
v -9 -2 1
v -9 -2 0
v 9 -2 1
v 9 -2 0
v 10 -2 1
v 10 -2 0
v 8 -3 1
v 8 -3 0
v 9 -3 1
v 9 -3 0
v 6 -4 1
v 6 -4 0
v 8 -4 1
v 8 -4 0
v -7 -5 1
v -7 -5 0
v -6 -5 1
v -6 -5 0
v 4 -5 1
v 4 -5 0
v 6 -5 1
v 6 -5 0
v -8 -6 1
v -8 -6 0
v -7 -6 1
v -7 -6 0
v -6 -6 1
v -6 -6 0
v 4 -6 1
v 4 -6 0
v -9 -7 1
v -9 -7 0
v -8 -7 1
v -8 -7 0
v -10 -8 1
v -10 -8 0
v -9 -8 1
v -9 -8 0
v -10 7 1
v -9 7 1
v -9 6 1
v -8 6 1
v -8 5 1
v -7 5 1
v -6 5 1
v 4 5 1
v -7 4 1
v -6 4 1
v -5 4 1
v 3 4 1
v 4 4 1
v 6 4 1
v -10 3 1
v -9 3 1
v -6 3 1
v -5 3 1
v 3 3 1
v 4 3 1
v 6 3 1
v 8 3 1
v -7 2 1
v -6 2 1
v 4 2 1
v 5 2 1
v 7 2 1
v 8 2 1
v 9 2 1
v -10 1 1
v -9 1 1
v -8 1 1
v -7 1 1
v 5 1 1
v 7 1 1
v 9 1 1
v 10 1 1
v -9 0 1
v -8 0 1
v -9 -1 1
v -8 -1 1
v -10 -2 1
v -9 -2 1
v -8 -2 1
v -7 -2 1
v 5 -2 1
v 7 -2 1
v 9 -2 1
v 10 -2 1
v -7 -3 1
v -6 -3 1
v 4 -3 1
v 5 -3 1
v 7 -3 1
v 8 -3 1
v 9 -3 1
v -10 -4 1
v -9 -4 1
v -6 -4 1
v -5 -4 1
v 3 -4 1
v 4 -4 1
v 6 -4 1
v 8 -4 1
v -7 -5 1
v -6 -5 1
v -5 -5 1
v 3 -5 1
v 4 -5 1
v 6 -5 1
v -8 -6 1
v -7 -6 1
v -6 -6 1
v 4 -6 1
v -9 -7 1
v -8 -7 1
v -10 -8 1
v -9 -8 1
v -10 7 0
v -9 7 0
v -9 6 0
v -8 6 0
v -8 5 0
v -7 5 0
v -6 5 0
v 4 5 0
v -7 4 0
v -6 4 0
v -5 4 0
v 3 4 0
v 4 4 0
v 6 4 0
v -10 3 0
v -9 3 0
v -6 3 0
v -5 3 0
v 3 3 0
v 4 3 0
v 6 3 0
v 8 3 0
v -7 2 0
v -6 2 0
v 4 2 0
v 5 2 0
v 7 2 0
v 8 2 0
v 9 2 0
v -10 1 0
v -9 1 0
v -8 1 0
v -7 1 0
v 5 1 0
v 7 1 0
v 9 1 0
v 10 1 0
v -9 0 0
v -8 0 0
v -9 -1 0
v -8 -1 0
v -10 -2 0
v -9 -2 0
v -8 -2 0
v -7 -2 0
v 5 -2 0
v 7 -2 0
v 9 -2 0
v 10 -2 0
v -7 -3 0
v -6 -3 0
v 4 -3 0
v 5 -3 0
v 7 -3 0
v 8 -3 0
v 9 -3 0
v -10 -4 0
v -9 -4 0
v -6 -4 0
v -5 -4 0
v 3 -4 0
v 4 -4 0
v 6 -4 0
v 8 -4 0
v -7 -5 0
v -6 -5 0
v -5 -5 0
v 3 -5 0
v 4 -5 0
v 6 -5 0
v -8 -6 0
v -7 -6 0
v -6 -6 0
v 4 -6 0
v -9 -7 0
v -8 -7 0
v -10 -8 0
v -9 -8 0

# faces
f 7/1/1 2/1/1 1/1/1
f 8/1/1 2/1/1 7/1/1
f 9/1/1 4/1/1 3/1/1
f 10/1/1 4/1/1 9/1/1
f 11/1/1 6/1/1 5/1/1
f 12/1/1 6/1/1 11/1/1
f 17/1/1 14/1/1 13/1/1
f 18/1/1 14/1/1 17/1/1
f 19/1/1 16/1/1 15/1/1
f 20/1/1 16/1/1 19/1/1
f 25/1/1 22/1/1 21/1/1
f 26/1/1 22/1/1 25/1/1
f 27/1/1 24/1/1 23/1/1
f 28/1/1 24/1/1 27/1/1
f 29/1/2 30/1/2 33/1/2
f 33/1/2 30/1/2 34/1/2
f 31/1/2 32/1/2 35/1/2
f 35/1/2 32/1/2 36/1/2
f 37/1/2 38/1/2 41/1/2
f 41/1/2 38/1/2 42/1/2
f 39/1/2 40/1/2 43/1/2
f 43/1/2 40/1/2 44/1/2
f 45/1/2 46/1/2 49/1/2
f 49/1/2 46/1/2 50/1/2
f 47/1/2 48/1/2 51/1/2
f 51/1/2 48/1/2 52/1/2
f 53/1/2 54/1/2 57/1/2
f 57/1/2 54/1/2 58/1/2
f 55/1/2 56/1/2 59/1/2
f 59/1/2 56/1/2 60/1/2
f 61/1/2 62/1/2 65/1/2
f 65/1/2 62/1/2 66/1/2
f 63/1/2 64/1/2 67/1/2
f 67/1/2 64/1/2 68/1/2
f 69/1/2 70/1/2 73/1/2
f 73/1/2 70/1/2 74/1/2
f 71/1/2 72/1/2 75/1/2
f 75/1/2 72/1/2 76/1/2
f 77/2/2 78/2/2 81/2/2
f 81/2/2 78/2/2 82/2/2
f 79/2/2 80/2/2 83/2/2
f 83/2/2 80/2/2 84/2/2
f 85/2/2 86/2/2 87/2/2
f 87/2/2 86/2/2 88/2/2
f 91/1/3 90/1/3 89/1/3
f 92/1/3 90/1/3 91/1/3
f 95/1/3 94/1/3 93/1/3
f 96/1/3 94/1/3 95/1/3
f 99/1/3 98/1/3 97/1/3
f 100/1/3 98/1/3 99/1/3
f 103/1/3 102/1/3 101/1/3
f 104/1/3 102/1/3 103/1/3
f 107/1/3 106/1/3 105/1/3
f 108/1/3 106/1/3 107/1/3
f 111/1/3 110/1/3 109/1/3
f 112/1/3 110/1/3 111/1/3
f 115/1/3 114/1/3 113/1/3
f 116/1/3 114/1/3 115/1/3
f 119/2/3 118/2/3 117/2/3
f 120/2/3 118/2/3 119/2/3
f 123/1/3 122/1/3 121/1/3
f 124/1/3 122/1/3 123/1/3
f 127/2/3 126/2/3 125/2/3
f 128/2/3 126/2/3 127/2/3
f 131/1/3 130/1/3 129/1/3
f 132/1/3 130/1/3 131/1/3
f 133/1/4 134/1/4 135/1/4
f 135/1/4 134/1/4 136/1/4
f 137/1/4 138/1/4 139/1/4
f 139/1/4 138/1/4 140/1/4
f 141/2/4 142/2/4 143/2/4
f 143/2/4 142/2/4 144/2/4
f 145/2/4 146/2/4 147/2/4
f 147/2/4 146/2/4 148/2/4
f 149/1/4 150/1/4 151/1/4
f 151/1/4 150/1/4 152/1/4
f 153/1/4 154/1/4 155/1/4
f 155/1/4 154/1/4 156/1/4
f 157/1/4 158/1/4 159/1/4
f 159/1/4 158/1/4 160/1/4
f 161/1/4 162/1/4 163/1/4
f 163/1/4 162/1/4 164/1/4
f 165/1/4 166/1/4 167/1/4
f 167/1/4 166/1/4 168/1/4
f 169/1/4 170/1/4 171/1/4
f 171/1/4 170/1/4 172/1/4
f 173/1/4 174/1/4 175/1/4
f 175/1/4 174/1/4 176/1/4
f 179/1/5 178/1/5 177/1/5
f 181/1/5 180/1/5 179/1/5
f 185/1/5 182/1/5 181/1/5
f 186/1/5 184/1/5 183/1/5
f 187/1/5 184/1/5 186/1/5
f 188/1/5 184/1/5 187/1/5
f 189/1/5 184/1/5 188/1/5
f 191/1/5 179/1/5 177/1/5
f 191/1/5 181/1/5 179/1/5
f 191/1/5 185/1/5 181/1/5
f 191/1/5 186/1/5 185/1/5
f 191/1/5 187/1/5 186/1/5
f 192/1/5 187/1/5 191/1/5
f 193/1/5 187/1/5 192/1/5
f 194/3/5 188/3/5 187/3/5
f 194/1/5 187/1/5 193/1/5
f 195/1/5 190/1/5 189/1/5
f 195/3/5 188/3/5 194/3/5
f 195/1/5 189/1/5 188/1/5
f 196/1/5 190/1/5 195/1/5
f 197/1/5 190/1/5 196/1/5
f 199/1/5 193/1/5 192/1/5
f 200/3/5 194/3/5 193/3/5
f 200/1/5 193/1/5 199/1/5
f 200/3/5 195/3/5 194/3/5
f 200/3/5 196/3/5 195/3/5
f 201/1/5 198/1/5 197/1/5
f 201/3/5 196/3/5 200/3/5
f 201/1/5 197/1/5 196/1/5
f 202/1/5 198/1/5 201/1/5
f 203/1/5 198/1/5 202/1/5
f 204/1/5 198/1/5 203/1/5
f 207/1/5 199/1/5 192/1/5
f 208/1/5 199/1/5 207/1/5
f 209/4/5 200/4/5 199/4/5
f 209/1/5 199/1/5 208/1/5
f 209/4/5 201/4/5 200/4/5
f 209/4/5 202/4/5 201/4/5
f 210/1/5 203/1/5 202/1/5
f 210/4/5 202/4/5 209/4/5
f 211/2/5 205/2/5 204/2/5
f 211/1/5 203/1/5 210/1/5
f 211/2/5 204/2/5 203/2/5
f 212/2/5 205/2/5 211/2/5
f 214/1/5 208/1/5 207/1/5
f 214/1/5 207/1/5 206/1/5
f 215/4/5 210/4/5 209/4/5
f 215/1/5 208/1/5 214/1/5
f 215/4/5 209/4/5 208/4/5
f 215/4/5 211/4/5 210/4/5
f 216/1/5 214/1/5 206/1/5
f 216/4/5 215/4/5 214/4/5
f 217/4/5 211/4/5 215/4/5
f 217/4/5 215/4/5 216/4/5
f 218/1/5 216/1/5 206/1/5
f 218/1/5 217/1/5 216/1/5
f 219/1/5 217/1/5 218/1/5
f 220/4/5 211/4/5 217/4/5
f 220/1/5 217/1/5 219/1/5
f 221/4/5 211/4/5 220/4/5
f 222/4/5 211/4/5 221/4/5
f 223/2/5 213/2/5 212/2/5
f 223/4/5 211/4/5 222/4/5
f 223/2/5 212/2/5 211/2/5
f 224/2/5 213/2/5 223/2/5
f 225/2/5 213/2/5 224/2/5
f 226/4/5 222/4/5 221/4/5
f 226/1/5 221/1/5 220/1/5
f 226/1/5 220/1/5 219/1/5
f 227/4/5 222/4/5 226/4/5
f 228/4/5 222/4/5 227/4/5
f 229/1/5 223/1/5 222/1/5
f 229/4/5 222/4/5 228/4/5
f 230/2/5 224/2/5 223/2/5
f 230/1/5 223/1/5 229/1/5
f 231/2/5 224/2/5 230/2/5
f 232/2/5 224/2/5 231/2/5
f 234/1/5 226/1/5 219/1/5
f 234/1/5 227/1/5 226/1/5
f 235/3/5 228/3/5 227/3/5
f 235/1/5 227/1/5 234/1/5
f 236/3/5 228/3/5 235/3/5
f 237/3/5 228/3/5 236/3/5
f 238/1/5 229/1/5 228/1/5
f 238/3/5 228/3/5 237/3/5
f 238/1/5 231/1/5 230/1/5
f 238/1/5 230/1/5 229/1/5
f 239/1/5 231/1/5 238/1/5
f 240/1/5 231/1/5 239/1/5
f 241/1/5 234/1/5 233/1/5
f 241/1/5 236/1/5 235/1/5
f 241/1/5 235/1/5 234/1/5
f 242/1/5 236/1/5 241/1/5
f 243/3/5 237/3/5 236/3/5
f 243/1/5 236/1/5 242/1/5
f 244/1/5 239/1/5 238/1/5
f 244/3/5 237/3/5 243/3/5
f 244/1/5 238/1/5 237/1/5
f 245/1/5 239/1/5 244/1/5
f 246/1/5 239/1/5 245/1/5
f 247/1/5 241/1/5 233/1/5
f 248/1/5 241/1/5 247/1/5
f 249/1/5 243/1/5 242/1/5
f 249/1/5 245/1/5 244/1/5
f 249/1/5 244/1/5 243/1/5
f 250/1/5 245/1/5 249/1/5
f 251/1/5 247/1/5 233/1/5
f 252/1/5 247/1/5 251/1/5
f 253/1/5 251/1/5 233/1/5
f 254/1/5 251/1/5 253/1/5
f 255/1/6 256/1/6 257/1/6
f 257/1/6 258/1/6 259/1/6
f 259/1/6 260/1/6 263/1/6
f 261/1/6 262/1/6 264/1/6
f 264/1/6 262/1/6 265/1/6
f 265/1/6 262/1/6 266/1/6
f 266/1/6 262/1/6 267/1/6
f 255/1/6 257/1/6 269/1/6
f 257/1/6 259/1/6 269/1/6
f 259/1/6 263/1/6 269/1/6
f 263/1/6 264/1/6 269/1/6
f 264/1/6 265/1/6 269/1/6
f 269/1/6 265/1/6 270/1/6
f 270/1/6 265/1/6 271/1/6
f 265/3/6 266/3/6 272/3/6
f 271/1/6 265/1/6 272/1/6
f 267/1/6 268/1/6 273/1/6
f 272/3/6 266/3/6 273/3/6
f 266/1/6 267/1/6 273/1/6
f 273/1/6 268/1/6 274/1/6
f 274/1/6 268/1/6 275/1/6
f 270/1/6 271/1/6 277/1/6
f 271/3/6 272/3/6 278/3/6
f 277/1/6 271/1/6 278/1/6
f 272/3/6 273/3/6 278/3/6
f 273/3/6 274/3/6 278/3/6
f 275/1/6 276/1/6 279/1/6
f 278/3/6 274/3/6 279/3/6
f 274/1/6 275/1/6 279/1/6
f 279/1/6 276/1/6 280/1/6
f 280/1/6 276/1/6 281/1/6
f 281/1/6 276/1/6 282/1/6
f 270/1/6 277/1/6 285/1/6
f 285/1/6 277/1/6 286/1/6
f 277/4/6 278/4/6 287/4/6
f 286/1/6 277/1/6 287/1/6
f 278/4/6 279/4/6 287/4/6
f 279/4/6 280/4/6 287/4/6
f 280/1/6 281/1/6 288/1/6
f 287/4/6 280/4/6 288/4/6
f 282/2/6 283/2/6 289/2/6
f 288/1/6 281/1/6 289/1/6
f 281/2/6 282/2/6 289/2/6
f 289/2/6 283/2/6 290/2/6
f 285/1/6 286/1/6 292/1/6
f 284/1/6 285/1/6 292/1/6
f 287/4/6 288/4/6 293/4/6
f 292/1/6 286/1/6 293/1/6
f 286/4/6 287/4/6 293/4/6
f 288/4/6 289/4/6 293/4/6
f 284/1/6 292/1/6 294/1/6
f 292/4/6 293/4/6 294/4/6
f 293/4/6 289/4/6 295/4/6
f 294/4/6 293/4/6 295/4/6
f 284/1/6 294/1/6 296/1/6
f 294/1/6 295/1/6 296/1/6
f 296/1/6 295/1/6 297/1/6
f 295/4/6 289/4/6 298/4/6
f 297/1/6 295/1/6 298/1/6
f 298/4/6 289/4/6 299/4/6
f 299/4/6 289/4/6 300/4/6
f 290/2/6 291/2/6 301/2/6
f 300/4/6 289/4/6 301/4/6
f 289/2/6 290/2/6 301/2/6
f 301/2/6 291/2/6 302/2/6
f 302/2/6 291/2/6 303/2/6
f 299/4/6 300/4/6 304/4/6
f 298/1/6 299/1/6 304/1/6
f 297/1/6 298/1/6 304/1/6
f 304/4/6 300/4/6 305/4/6
f 305/4/6 300/4/6 306/4/6
f 300/1/6 301/1/6 307/1/6
f 306/4/6 300/4/6 307/4/6
f 301/2/6 302/2/6 308/2/6
f 307/1/6 301/1/6 308/1/6
f 308/2/6 302/2/6 309/2/6
f 309/2/6 302/2/6 310/2/6
f 297/1/6 304/1/6 312/1/6
f 304/1/6 305/1/6 312/1/6
f 305/3/6 306/3/6 313/3/6
f 312/1/6 305/1/6 313/1/6
f 313/3/6 306/3/6 314/3/6
f 314/3/6 306/3/6 315/3/6
f 306/1/6 307/1/6 316/1/6
f 315/3/6 306/3/6 316/3/6
f 308/1/6 309/1/6 316/1/6
f 307/1/6 308/1/6 316/1/6
f 316/1/6 309/1/6 317/1/6
f 317/1/6 309/1/6 318/1/6
f 311/1/6 312/1/6 319/1/6
f 313/1/6 314/1/6 319/1/6
f 312/1/6 313/1/6 319/1/6
f 319/1/6 314/1/6 320/1/6
f 314/3/6 315/3/6 321/3/6
f 320/1/6 314/1/6 321/1/6
f 316/1/6 317/1/6 322/1/6
f 321/3/6 315/3/6 322/3/6
f 315/1/6 316/1/6 322/1/6
f 322/1/6 317/1/6 323/1/6
f 323/1/6 317/1/6 324/1/6
f 311/1/6 319/1/6 325/1/6
f 325/1/6 319/1/6 326/1/6
f 320/1/6 321/1/6 327/1/6
f 322/1/6 323/1/6 327/1/6
f 321/1/6 322/1/6 327/1/6
f 327/1/6 323/1/6 328/1/6
f 311/1/6 325/1/6 329/1/6
f 329/1/6 325/1/6 330/1/6
f 311/1/6 329/1/6 331/1/6
f 331/1/6 329/1/6 332/1/6
