# MagicaVoxel @ Ephtracy

# group
o 

# material
mtllib Mutant Radar.mtl
usemtl palette

# normals
vn -1 0 0
vn 1 0 0
vn 0 -1 0
vn 0 1 0
vn 0 0 1
vn 0 0 -1

# texcoords
vt 0.138672 0.5
vt 0.541016 0.5
vt 0.681641 0.5
vt 0.751953 0.5
vt 0.841797 0.5
vt 0.845703 0.5
vt 0.919922 0.5
vt 0.927734 0.5

# verts
v -5 -2 0
v -5 0 0
v -5 -2 -1
v -5 0 -1
v -4 0 0
v -4 1 0
v -4 3 0
v -4 4 0
v -4 0 -1
v -4 1 -1
v -4 3 -1
v -4 4 -1
v -3 -3 0
v -3 -2 0
v -3 1 0
v -3 3 0
v -3 -3 -1
v -3 -2 -1
v -3 1 -1
v -3 3 -1
v -2 -4 0
v -2 -3 0
v -2 -4 -1
v -2 -3 -1
v -1 4 0
v -1 5 0
v -1 -2 -1
v -1 1 -1
v -1 2 -1
v -1 3 -1
v -1 4 -1
v -1 5 -1
v -1 -2 -2
v -1 1 -2
v -1 2 -2
v -1 3 -2
v 1 4 0
v 1 5 0
v 1 1 -1
v 1 2 -1
v 1 3 -1
v 1 4 -1
v 1 5 -1
v 1 1 -2
v 1 2 -2
v 1 3 -2
v 2 -4 0
v 2 -3 0
v 2 -4 -1
v 2 -3 -1
v 2 -2 -1
v 2 -1 -1
v 2 1 -1
v 2 -2 -2
v 2 -1 -2
v 2 1 -2
v 3 -3 0
v 3 -2 0
v 3 1 0
v 3 3 0
v 3 -3 -1
v 3 -2 -1
v 3 1 -1
v 3 3 -1
v 4 0 0
v 4 1 0
v 4 3 0
v 4 4 0
v 4 0 -1
v 4 1 -1
v 4 3 -1
v 4 4 -1
v 5 -2 0
v 5 0 0
v 5 -2 -1
v 5 0 -1
v -2 -4 0
v -2 -4 -1
v 2 -4 0
v 2 -4 -1
v -3 -3 0
v -3 -3 -1
v -2 -3 0
v -2 -3 -1
v 2 -3 0
v 2 -3 -1
v 3 -3 0
v 3 -3 -1
v -5 -2 0
v -5 -2 -1
v -3 -2 0
v -3 -2 -1
v -1 -2 -1
v -1 -2 -2
v 0 -2 -1
v 0 -2 -2
v 1 -2 -1
v 1 -2 -2
v 2 -2 -1
v 2 -2 -2
v 3 -2 0
v 3 -2 -1
v 5 -2 0
v 5 -2 -1
v -4 3 0
v -4 3 -1
v -3 3 0
v -3 3 -1
v 3 3 0
v 3 3 -1
v 4 3 0
v 4 3 -1
v -5 0 0
v -5 0 -1
v -4 0 0
v -4 0 -1
v 4 0 0
v 4 0 -1
v 5 0 0
v 5 0 -1
v -4 1 0
v -4 1 -1
v -3 1 0
v -3 1 -1
v 1 1 -1
v 1 1 -2
v 2 1 -1
v 2 1 -2
v 3 1 0
v 3 1 -1
v 4 1 0
v 4 1 -1
v -1 3 -1
v -1 3 -2
v 1 3 -1
v 1 3 -2
v -4 4 0
v -4 4 -1
v -2 4 0
v -2 4 -1
v -1 4 0
v -1 4 -1
v 1 4 0
v 1 4 -1
v 2 4 0
v 2 4 -1
v 4 4 0
v 4 4 -1
v -1 5 0
v -1 5 -1
v 1 5 0
v 1 5 -1
v -2 -4 0
v 2 -4 0
v -3 -3 0
v -2 -3 0
v 2 -3 0
v 3 -3 0
v -5 -2 0
v -3 -2 0
v -1 -2 0
v 1 -2 0
v 3 -2 0
v 5 -2 0
v -5 0 0
v -4 0 0
v -1 0 0
v 0 0 0
v 4 0 0
v 5 0 0
v -4 1 0
v -3 1 0
v -1 1 0
v 0 1 0
v 3 1 0
v 4 1 0
v -2 2 0
v -1 2 0
v 0 2 0
v 1 2 0
v 2 2 0
v -4 3 0
v -3 3 0
v -1 3 0
v 1 3 0
v 3 3 0
v 4 3 0
v -4 4 0
v -2 4 0
v -1 4 0
v 1 4 0
v 2 4 0
v 4 4 0
v -1 5 0
v 1 5 0
v -2 -4 -1
v 2 -4 -1
v -3 -3 -1
v -2 -3 -1
v 2 -3 -1
v 3 -3 -1
v -5 -2 -1
v -3 -2 -1
v -1 -2 -1
v 0 -2 -1
v 1 -2 -1
v 2 -2 -1
v 3 -2 -1
v 5 -2 -1
v 2 -1 -1
v -5 0 -1
v -4 0 -1
v 4 0 -1
v 5 0 -1
v -4 1 -1
v -3 1 -1
v -1 1 -1
v 1 1 -1
v 2 1 -1
v 3 1 -1
v 4 1 -1
v -2 2 -1
v -1 2 -1
v 1 2 -1
v 2 2 -1
v -4 3 -1
v -3 3 -1
v -1 3 -1
v 1 3 -1
v 3 3 -1
v 4 3 -1
v -4 4 -1
v -2 4 -1
v -1 4 -1
v 1 4 -1
v 2 4 -1
v 4 4 -1
v -1 5 -1
v 1 5 -1
v -1 -2 -2
v 0 -2 -2
v 1 -2 -2
v 2 -2 -2
v 1 -1 -2
v 2 -1 -2
v 0 0 -2
v 1 0 -2
v -1 1 -2
v 1 1 -2
v 2 1 -2
v -1 2 -2
v 1 2 -2
v -1 3 -2
v 1 3 -2

# faces
f 1/4/1 2/4/1 3/4/1
f 3/4/1 2/4/1 4/4/1
f 5/4/1 6/4/1 9/4/1
f 9/4/1 6/4/1 10/4/1
f 7/4/1 8/4/1 11/4/1
f 11/4/1 8/4/1 12/4/1
f 13/4/1 14/4/1 17/4/1
f 17/4/1 14/4/1 18/4/1
f 15/4/1 16/4/1 19/4/1
f 19/4/1 16/4/1 20/4/1
f 21/4/1 22/4/1 23/4/1
f 23/4/1 22/4/1 24/4/1
f 25/6/1 26/6/1 31/6/1
f 31/6/1 26/6/1 32/6/1
f 27/3/1 28/3/1 33/3/1
f 28/1/1 29/1/1 34/1/1
f 33/3/1 28/3/1 34/3/1
f 29/5/1 30/5/1 35/5/1
f 34/1/1 29/1/1 35/1/1
f 35/5/1 30/5/1 36/5/1
f 42/6/2 38/6/2 37/6/2
f 43/6/2 38/6/2 42/6/2
f 44/1/2 40/1/2 39/1/2
f 45/5/2 41/5/2 40/5/2
f 45/1/2 40/1/2 44/1/2
f 46/5/2 41/5/2 45/5/2
f 49/4/2 48/4/2 47/4/2
f 50/4/2 48/4/2 49/4/2
f 54/8/2 52/8/2 51/8/2
f 55/5/2 53/5/2 52/5/2
f 55/8/2 52/8/2 54/8/2
f 56/5/2 53/5/2 55/5/2
f 61/4/2 58/4/2 57/4/2
f 62/4/2 58/4/2 61/4/2
f 63/4/2 60/4/2 59/4/2
f 64/4/2 60/4/2 63/4/2
f 69/4/2 66/4/2 65/4/2
f 70/4/2 66/4/2 69/4/2
f 71/4/2 68/4/2 67/4/2
f 72/4/2 68/4/2 71/4/2
f 75/4/2 74/4/2 73/4/2
f 76/4/2 74/4/2 75/4/2
f 77/4/3 78/4/3 79/4/3
f 79/4/3 78/4/3 80/4/3
f 81/4/3 82/4/3 83/4/3
f 83/4/3 82/4/3 84/4/3
f 85/4/3 86/4/3 87/4/3
f 87/4/3 86/4/3 88/4/3
f 89/4/3 90/4/3 91/4/3
f 91/4/3 90/4/3 92/4/3
f 93/3/3 94/3/3 95/3/3
f 95/3/3 94/3/3 96/3/3
f 95/5/3 96/5/3 97/5/3
f 97/5/3 96/5/3 98/5/3
f 97/8/3 98/8/3 99/8/3
f 99/8/3 98/8/3 100/8/3
f 101/4/3 102/4/3 103/4/3
f 103/4/3 102/4/3 104/4/3
f 105/4/3 106/4/3 107/4/3
f 107/4/3 106/4/3 108/4/3
f 109/4/3 110/4/3 111/4/3
f 111/4/3 110/4/3 112/4/3
f 115/4/4 114/4/4 113/4/4
f 116/4/4 114/4/4 115/4/4
f 119/4/4 118/4/4 117/4/4
f 120/4/4 118/4/4 119/4/4
f 123/4/4 122/4/4 121/4/4
f 124/4/4 122/4/4 123/4/4
f 127/5/4 126/5/4 125/5/4
f 128/5/4 126/5/4 127/5/4
f 131/4/4 130/4/4 129/4/4
f 132/4/4 130/4/4 131/4/4
f 135/5/4 134/5/4 133/5/4
f 136/5/4 134/5/4 135/5/4
f 139/4/4 138/4/4 137/4/4
f 140/4/4 138/4/4 139/4/4
f 141/2/4 140/2/4 139/2/4
f 142/2/4 140/2/4 141/2/4
f 145/2/4 144/2/4 143/2/4
f 146/2/4 144/2/4 145/2/4
f 147/4/4 146/4/4 145/4/4
f 148/4/4 146/4/4 147/4/4
f 151/6/4 150/6/4 149/6/4
f 152/6/4 150/6/4 151/6/4
f 153/4/5 154/4/5 156/4/5
f 156/4/5 154/4/5 157/4/5
f 155/4/5 156/4/5 160/4/5
f 156/1/5 157/1/5 161/1/5
f 161/1/5 157/1/5 162/1/5
f 157/4/5 158/4/5 163/4/5
f 159/4/5 160/4/5 165/4/5
f 165/4/5 160/4/5 166/4/5
f 156/1/5 161/1/5 167/1/5
f 161/4/5 162/4/5 167/4/5
f 167/4/5 162/4/5 168/4/5
f 163/4/5 164/4/5 169/4/5
f 169/4/5 164/4/5 170/4/5
f 166/4/5 160/4/5 171/4/5
f 160/4/5 156/4/5 172/4/5
f 171/4/5 160/4/5 172/4/5
f 156/1/5 167/1/5 173/1/5
f 167/7/5 168/7/5 173/7/5
f 168/4/5 162/4/5 174/4/5
f 173/7/5 168/7/5 174/7/5
f 163/4/5 169/4/5 175/4/5
f 157/4/5 163/4/5 175/4/5
f 175/4/5 169/4/5 176/4/5
f 156/1/5 173/1/5 177/1/5
f 172/4/5 156/4/5 177/4/5
f 173/3/5 174/3/5 178/3/5
f 177/1/5 173/1/5 178/1/5
f 174/4/5 162/4/5 179/4/5
f 178/3/5 174/3/5 179/3/5
f 162/1/5 157/1/5 180/1/5
f 179/4/5 162/4/5 180/4/5
f 157/4/5 175/4/5 181/4/5
f 180/1/5 157/1/5 181/1/5
f 172/4/5 177/4/5 183/4/5
f 178/4/5 179/4/5 184/4/5
f 177/2/5 178/2/5 184/2/5
f 179/4/5 180/4/5 184/4/5
f 180/2/5 181/2/5 185/2/5
f 184/4/5 180/4/5 185/4/5
f 181/4/5 175/4/5 186/4/5
f 182/4/5 183/4/5 188/4/5
f 183/4/5 177/4/5 189/4/5
f 188/4/5 183/4/5 189/4/5
f 177/2/5 184/2/5 189/2/5
f 184/5/5 185/5/5 190/5/5
f 189/2/5 184/2/5 190/2/5
f 185/2/5 181/2/5 191/2/5
f 190/5/5 185/5/5 191/5/5
f 186/4/5 187/4/5 192/4/5
f 191/2/5 181/2/5 192/2/5
f 181/4/5 186/4/5 192/4/5
f 192/4/5 187/4/5 193/4/5
f 190/6/5 191/6/5 194/6/5
f 194/6/5 191/6/5 195/6/5
f 199/4/6 197/4/6 196/4/6
f 200/4/6 197/4/6 199/4/6
f 203/4/6 199/4/6 198/4/6
f 204/1/6 200/1/6 199/1/6
f 205/1/6 200/1/6 204/1/6
f 206/1/6 200/1/6 205/1/6
f 207/4/6 201/4/6 200/4/6
f 207/1/6 200/1/6 206/1/6
f 208/4/6 201/4/6 207/4/6
f 210/4/6 209/4/6 208/4/6
f 210/4/6 208/4/6 207/4/6
f 211/4/6 203/4/6 202/4/6
f 212/4/6 203/4/6 211/4/6
f 213/4/6 209/4/6 210/4/6
f 214/4/6 209/4/6 213/4/6
f 215/4/6 203/4/6 212/4/6
f 216/4/6 199/4/6 203/4/6
f 216/4/6 203/4/6 215/4/6
f 217/1/6 204/1/6 199/1/6
f 219/4/6 213/4/6 210/4/6
f 220/4/6 213/4/6 219/4/6
f 221/4/6 213/4/6 220/4/6
f 222/4/6 199/4/6 216/4/6
f 222/1/6 217/1/6 199/1/6
f 223/1/6 217/1/6 222/1/6
f 224/1/6 219/1/6 218/1/6
f 225/4/6 220/4/6 219/4/6
f 225/1/6 219/1/6 224/1/6
f 227/4/6 222/4/6 216/4/6
f 228/2/6 223/2/6 222/2/6
f 229/2/6 225/2/6 224/2/6
f 230/4/6 220/4/6 225/4/6
f 232/4/6 227/4/6 226/4/6
f 233/2/6 228/2/6 222/2/6
f 233/4/6 227/4/6 232/4/6
f 233/4/6 222/4/6 227/4/6
f 234/5/6 229/5/6 228/5/6
f 234/2/6 228/2/6 233/2/6
f 235/2/6 225/2/6 229/2/6
f 235/5/6 229/5/6 234/5/6
f 236/4/6 231/4/6 230/4/6
f 236/2/6 225/2/6 235/2/6
f 236/4/6 230/4/6 225/4/6
f 237/4/6 231/4/6 236/4/6
f 238/6/6 235/6/6 234/6/6
f 239/6/6 235/6/6 238/6/6
f 244/5/6 242/5/6 241/5/6
f 244/8/6 243/8/6 242/8/6
f 245/8/6 243/8/6 244/8/6
f 246/3/6 241/3/6 240/3/6
f 246/5/6 244/5/6 241/5/6
f 246/5/6 245/5/6 244/5/6
f 247/5/6 245/5/6 246/5/6
f 248/3/6 246/3/6 240/3/6
f 248/3/6 247/3/6 246/3/6
f 249/5/6 245/5/6 247/5/6
f 249/3/6 247/3/6 248/3/6
f 250/5/6 245/5/6 249/5/6
f 251/1/6 249/1/6 248/1/6
f 252/1/6 249/1/6 251/1/6
f 253/5/6 252/5/6 251/5/6
f 254/5/6 252/5/6 253/5/6
