# MagicaVoxel @ Ephtracy

# group
o 

# material
mtllib Mutant Radar.mtl
usemtl palette

# normals
vn -1 0 0
vn 1 0 0
vn 0 1 0
vn 0 -1 0
vn 0 0 1
vn 0 0 -1

# texcoords
vt 0.138672 0.5
vt 0.541016 0.5
vt 0.681641 0.5
vt 0.751953 0.5
vt 0.841797 0.5
vt 0.845703 0.5

# verts
v -2 1 0
v -2 0 0
v -2 -1 0
v -2 -2 0
v -2 1 -1
v -2 0 -1
v -2 -1 -1
v -2 -2 -1
v -1 2 0
v -1 1 0
v -1 2 -1
v -1 1 -1
v 1 2 0
v 1 1 0
v 1 2 -1
v 1 1 -1
v 2 1 0
v 2 0 0
v 2 -1 0
v 2 -2 0
v 2 1 -1
v 2 0 -1
v 2 -1 -1
v 2 -2 -1
v -1 2 0
v -1 2 -1
v 1 2 0
v 1 2 -1
v -2 1 0
v -2 1 -1
v -1 1 0
v -1 1 -1
v 1 1 0
v 1 1 -1
v 2 1 0
v 2 1 -1
v -2 -2 0
v -2 -2 -1
v -1 -2 0
v -1 -2 -1
v 0 -2 0
v 0 -2 -1
v 1 -2 0
v 1 -2 -1
v 2 -2 0
v 2 -2 -1
v -1 2 0
v 1 2 0
v -2 1 0
v -1 1 0
v 1 1 0
v 2 1 0
v -2 0 0
v -1 0 0
v 1 0 0
v 2 0 0
v -2 -1 0
v -1 -1 0
v 0 -1 0
v 1 -1 0
v 2 -1 0
v -2 -2 0
v -1 -2 0
v 0 -2 0
v 1 -2 0
v 2 -2 0
v -1 2 -1
v 1 2 -1
v -2 1 -1
v -1 1 -1
v 1 1 -1
v 2 1 -1
v -2 0 -1
v -1 0 -1
v 1 0 -1
v 2 0 -1
v -2 -1 -1
v -1 -1 -1
v 0 -1 -1
v 1 -1 -1
v 2 -1 -1
v -2 -2 -1
v -1 -2 -1
v 0 -2 -1
v 1 -2 -1
v 2 -2 -1

# faces
f 5/2/1 2/2/1 1/2/1
f 6/4/1 3/4/1 2/4/1
f 6/2/1 2/2/1 5/2/1
f 7/1/1 4/1/1 3/1/1
f 7/4/1 3/4/1 6/4/1
f 8/1/1 4/1/1 7/1/1
f 11/6/1 10/6/1 9/6/1
f 12/6/1 10/6/1 11/6/1
f 13/6/2 14/6/2 15/6/2
f 15/6/2 14/6/2 16/6/2
f 17/2/2 18/2/2 21/2/2
f 18/4/2 19/4/2 22/4/2
f 21/2/2 18/2/2 22/2/2
f 19/1/2 20/1/2 23/1/2
f 22/4/2 19/4/2 23/4/2
f 23/1/2 20/1/2 24/1/2
f 27/6/3 26/6/3 25/6/3
f 28/6/3 26/6/3 27/6/3
f 31/2/3 30/2/3 29/2/3
f 32/2/3 30/2/3 31/2/3
f 35/2/3 34/2/3 33/2/3
f 36/2/3 34/2/3 35/2/3
f 37/1/4 38/1/4 39/1/4
f 39/1/4 38/1/4 40/1/4
f 39/3/4 40/3/4 41/3/4
f 41/3/4 40/3/4 42/3/4
f 41/4/4 42/4/4 43/4/4
f 43/4/4 42/4/4 44/4/4
f 43/1/4 44/1/4 45/1/4
f 45/1/4 44/1/4 46/1/4
f 50/6/5 48/6/5 47/6/5
f 51/6/5 48/6/5 50/6/5
f 53/2/5 50/2/5 49/2/5
f 54/5/5 51/5/5 50/5/5
f 54/2/5 50/2/5 53/2/5
f 55/2/5 52/2/5 51/2/5
f 55/5/5 51/5/5 54/5/5
f 56/2/5 52/2/5 55/2/5
f 57/4/5 54/4/5 53/4/5
f 57/4/5 55/4/5 54/4/5
f 57/4/5 56/4/5 55/4/5
f 58/4/5 56/4/5 57/4/5
f 59/4/5 56/4/5 58/4/5
f 60/4/5 56/4/5 59/4/5
f 61/4/5 56/4/5 60/4/5
f 62/1/5 58/1/5 57/1/5
f 63/3/5 59/3/5 58/3/5
f 63/1/5 58/1/5 62/1/5
f 64/4/5 60/4/5 59/4/5
f 64/3/5 59/3/5 63/3/5
f 65/1/5 61/1/5 60/1/5
f 65/4/5 60/4/5 64/4/5
f 66/1/5 61/1/5 65/1/5
f 67/6/6 68/6/6 70/6/6
f 70/6/6 68/6/6 71/6/6
f 69/2/6 70/2/6 73/2/6
f 70/5/6 71/5/6 74/5/6
f 73/2/6 70/2/6 74/2/6
f 71/2/6 72/2/6 75/2/6
f 74/5/6 71/5/6 75/5/6
f 75/2/6 72/2/6 76/2/6
f 73/4/6 74/4/6 77/4/6
f 74/4/6 75/4/6 77/4/6
f 75/4/6 76/4/6 77/4/6
f 77/4/6 76/4/6 78/4/6
f 78/4/6 76/4/6 79/4/6
f 79/4/6 76/4/6 80/4/6
f 80/4/6 76/4/6 81/4/6
f 77/1/6 78/1/6 82/1/6
f 78/3/6 79/3/6 83/3/6
f 82/1/6 78/1/6 83/1/6
f 79/4/6 80/4/6 84/4/6
f 83/3/6 79/3/6 84/3/6
f 80/1/6 81/1/6 85/1/6
f 84/4/6 80/4/6 85/4/6
f 85/1/6 81/1/6 86/1/6
