# MagicaVoxel @ Ephtracy

# group
o 

# material
mtllib Person.mtl
usemtl palette

# normals
vn -1 0 0
vn 1 0 0
vn 0 -1 0
vn 0 1 0
vn 0 0 1
vn 0 0 -1

# texcoords
vt 0.00976562 0.5
vt 0.158203 0.5
vt 0.775391 0.5
vt 0.990234 0.5

# verts
v -9 -13 -8
v -9 -7 -8
v -9 4 -8
v -9 -13 -11
v -9 -7 -11
v -9 4 -11
v -5 -10 -8
v -5 1 -8
v -5 19 -8
v -5 20 -8
v -5 18 -10
v -5 19 -10
v -5 -10 -11
v -5 1 -11
v -5 18 -11
v -5 18 -15
v -5 20 -15
v -3 -20 -7
v -3 -15 -7
v -3 -20 -12
v -3 -15 -12
v -2 -15 -8
v -2 -13 -8
v -2 -15 -11
v -2 -13 -11
v 1 4 -8
v 1 19 -8
v 1 4 -11
v 1 19 -11
v 2 19 -8
v 2 20 -8
v 2 18 -11
v 2 19 -11
v 2 18 -15
v 2 20 -15
v 6 -10 -8
v 6 -7 -8
v 6 4 -8
v 6 -10 -11
v 6 -7 -11
v 6 4 -11
v -6 -10 -8
v -6 -7 -8
v -6 4 -8
v -6 -10 -11
v -6 -7 -11
v -6 4 -11
v -2 19 -8
v -2 20 -8
v -2 18 -11
v -2 19 -11
v -2 18 -15
v -2 20 -15
v -1 4 -8
v -1 19 -8
v -1 4 -11
v -1 19 -11
v 2 -15 -8
v 2 -13 -8
v 2 -15 -11
v 2 -13 -11
v 3 -20 -7
v 3 -15 -7
v 3 -20 -12
v 3 -15 -12
v 5 -10 -8
v 5 1 -8
v 5 19 -8
v 5 20 -8
v 5 18 -10
v 5 19 -10
v 5 -10 -11
v 5 1 -11
v 5 18 -11
v 5 18 -15
v 5 20 -15
v 9 -13 -8
v 9 -7 -8
v 9 4 -8
v 9 -13 -11
v 9 -7 -11
v 9 4 -11
v -3 -20 -7
v -3 -20 -12
v 3 -20 -7
v 3 -20 -12
v -9 -13 -8
v -9 -13 -11
v -2 -13 -8
v -2 -13 -11
v 2 -13 -8
v 2 -13 -11
v 9 -13 -8
v 9 -13 -11
v -5 18 -11
v -5 18 -15
v -2 18 -11
v -2 18 -15
v 2 18 -11
v 2 18 -15
v 5 18 -11
v 5 18 -15
v -3 -15 -7
v -3 -15 -12
v -2 -15 -8
v -2 -15 -11
v 2 -15 -8
v 2 -15 -11
v 3 -15 -7
v 3 -15 -12
v -6 -10 -8
v -6 -10 -11
v -5 -10 -8
v -5 -10 -11
v 5 -10 -8
v 5 -10 -11
v 6 -10 -8
v 6 -10 -11
v -9 4 -8
v -9 4 -11
v -6 4 -8
v -6 4 -11
v -1 4 -8
v -1 4 -11
v 1 4 -8
v 1 4 -11
v 6 4 -8
v 6 4 -11
v 9 4 -8
v 9 4 -11
v -2 19 -8
v -2 19 -11
v -1 19 -8
v -1 19 -11
v 1 19 -8
v 1 19 -11
v 2 19 -8
v 2 19 -11
v -5 20 -8
v -5 20 -15
v -2 20 -8
v -2 20 -15
v 2 20 -8
v 2 20 -15
v 5 20 -8
v 5 20 -15
v -3 -20 -7
v 3 -20 -7
v -3 -15 -7
v 3 -15 -7
v -2 -15 -8
v 2 -15 -8
v -9 -13 -8
v -2 -13 -8
v 2 -13 -8
v 9 -13 -8
v -6 -10 -8
v -5 -10 -8
v 5 -10 -8
v 6 -10 -8
v -9 -7 -8
v -6 -7 -8
v 6 -7 -8
v 9 -7 -8
v -5 1 -8
v 5 1 -8
v -9 4 -8
v -6 4 -8
v -1 4 -8
v 1 4 -8
v 6 4 -8
v 9 4 -8
v -5 19 -8
v -2 19 -8
v -1 19 -8
v 1 19 -8
v 2 19 -8
v 5 19 -8
v -5 20 -8
v -2 20 -8
v 2 20 -8
v 5 20 -8
v -2 -15 -11
v 2 -15 -11
v -9 -13 -11
v -2 -13 -11
v 2 -13 -11
v 9 -13 -11
v -6 -10 -11
v -5 -10 -11
v 5 -10 -11
v 6 -10 -11
v -9 -7 -11
v -6 -7 -11
v 6 -7 -11
v 9 -7 -11
v -5 1 -11
v 5 1 -11
v -9 4 -11
v -6 4 -11
v -1 4 -11
v 1 4 -11
v 6 4 -11
v 9 4 -11
v -5 18 -11
v -2 18 -11
v 2 18 -11
v 5 18 -11
v -2 19 -11
v -1 19 -11
v 1 19 -11
v 2 19 -11
v -3 -20 -12
v 3 -20 -12
v -3 -15 -12
v 3 -15 -12
v -5 18 -15
v -2 18 -15
v 2 18 -15
v 5 18 -15
v -5 20 -15
v -2 20 -15
v 2 20 -15
v 5 20 -15

# faces
f 1/2/1 2/2/1 4/2/1
f 2/1/1 3/1/1 5/1/1
f 4/2/1 2/2/1 5/2/1
f 5/1/1 3/1/1 6/1/1
f 8/3/1 9/3/1 11/3/1
f 9/4/1 10/4/1 12/4/1
f 11/3/1 9/3/1 12/3/1
f 7/2/1 8/2/1 13/2/1
f 8/3/1 11/3/1 14/3/1
f 13/2/1 8/2/1 14/2/1
f 11/4/1 12/4/1 15/4/1
f 14/3/1 11/3/1 15/3/1
f 15/4/1 12/4/1 16/4/1
f 12/4/1 10/4/1 17/4/1
f 16/4/1 12/4/1 17/4/1
f 18/1/1 19/1/1 20/1/1
f 20/1/1 19/1/1 21/1/1
f 22/1/1 23/1/1 24/1/1
f 24/1/1 23/1/1 25/1/1
f 26/3/1 27/3/1 28/3/1
f 28/3/1 27/3/1 29/3/1
f 30/4/1 31/4/1 33/4/1
f 32/4/1 33/4/1 34/4/1
f 33/4/1 31/4/1 35/4/1
f 34/4/1 33/4/1 35/4/1
f 36/2/1 37/2/1 39/2/1
f 37/1/1 38/1/1 40/1/1
f 39/2/1 37/2/1 40/2/1
f 40/1/1 38/1/1 41/1/1
f 45/2/2 43/2/2 42/2/2
f 46/1/2 44/1/2 43/1/2
f 46/2/2 43/2/2 45/2/2
f 47/1/2 44/1/2 46/1/2
f 51/4/2 49/4/2 48/4/2
f 52/4/2 51/4/2 50/4/2
f 53/4/2 49/4/2 51/4/2
f 53/4/2 51/4/2 52/4/2
f 56/3/2 55/3/2 54/3/2
f 57/3/2 55/3/2 56/3/2
f 60/1/2 59/1/2 58/1/2
f 61/1/2 59/1/2 60/1/2
f 64/1/2 63/1/2 62/1/2
f 65/1/2 63/1/2 64/1/2
f 70/3/2 68/3/2 67/3/2
f 71/4/2 69/4/2 68/4/2
f 71/3/2 68/3/2 70/3/2
f 72/2/2 67/2/2 66/2/2
f 73/3/2 70/3/2 67/3/2
f 73/2/2 67/2/2 72/2/2
f 74/4/2 71/4/2 70/4/2
f 74/3/2 70/3/2 73/3/2
f 75/4/2 71/4/2 74/4/2
f 76/4/2 69/4/2 71/4/2
f 76/4/2 71/4/2 75/4/2
f 80/2/2 78/2/2 77/2/2
f 81/1/2 79/1/2 78/1/2
f 81/2/2 78/2/2 80/2/2
f 82/1/2 79/1/2 81/1/2
f 83/1/3 84/1/3 85/1/3
f 85/1/3 84/1/3 86/1/3
f 87/2/3 88/2/3 89/2/3
f 89/2/3 88/2/3 90/2/3
f 91/2/3 92/2/3 93/2/3
f 93/2/3 92/2/3 94/2/3
f 95/4/3 96/4/3 97/4/3
f 97/4/3 96/4/3 98/4/3
f 99/4/3 100/4/3 101/4/3
f 101/4/3 100/4/3 102/4/3
f 105/1/4 104/1/4 103/1/4
f 106/1/4 104/1/4 105/1/4
f 107/1/4 105/1/4 103/1/4
f 108/1/4 104/1/4 106/1/4
f 109/1/4 107/1/4 103/1/4
f 109/1/4 108/1/4 107/1/4
f 110/1/4 104/1/4 108/1/4
f 110/1/4 108/1/4 109/1/4
f 113/2/4 112/2/4 111/2/4
f 114/2/4 112/2/4 113/2/4
f 117/2/4 116/2/4 115/2/4
f 118/2/4 116/2/4 117/2/4
f 121/1/4 120/1/4 119/1/4
f 122/1/4 120/1/4 121/1/4
f 125/3/4 124/3/4 123/3/4
f 126/3/4 124/3/4 125/3/4
f 129/1/4 128/1/4 127/1/4
f 130/1/4 128/1/4 129/1/4
f 133/3/4 132/3/4 131/3/4
f 134/3/4 132/3/4 133/3/4
f 137/3/4 136/3/4 135/3/4
f 138/3/4 136/3/4 137/3/4
f 141/4/4 140/4/4 139/4/4
f 142/4/4 140/4/4 141/4/4
f 145/4/4 144/4/4 143/4/4
f 146/4/4 144/4/4 145/4/4
f 147/1/5 148/1/5 149/1/5
f 149/1/5 148/1/5 150/1/5
f 151/1/5 152/1/5 154/1/5
f 154/1/5 152/1/5 155/1/5
f 153/2/5 154/2/5 157/2/5
f 155/2/5 156/2/5 157/2/5
f 154/2/5 155/2/5 157/2/5
f 157/2/5 156/2/5 158/2/5
f 158/2/5 156/2/5 159/2/5
f 159/2/5 156/2/5 160/2/5
f 153/2/5 157/2/5 161/2/5
f 161/2/5 157/2/5 162/2/5
f 160/2/5 156/2/5 163/2/5
f 163/2/5 156/2/5 164/2/5
f 158/2/5 159/2/5 165/2/5
f 165/2/5 159/2/5 166/2/5
f 161/1/5 162/1/5 167/1/5
f 167/1/5 162/1/5 168/1/5
f 165/3/5 166/3/5 169/3/5
f 169/3/5 166/3/5 170/3/5
f 163/1/5 164/1/5 171/1/5
f 171/1/5 164/1/5 172/1/5
f 165/3/5 169/3/5 173/3/5
f 173/3/5 169/3/5 174/3/5
f 174/3/5 169/3/5 175/3/5
f 170/3/5 166/3/5 176/3/5
f 176/3/5 166/3/5 177/3/5
f 177/3/5 166/3/5 178/3/5
f 173/4/5 174/4/5 179/4/5
f 179/4/5 174/4/5 180/4/5
f 177/4/5 178/4/5 181/4/5
f 181/4/5 178/4/5 182/4/5
f 186/1/6 184/1/6 183/1/6
f 187/1/6 184/1/6 186/1/6
f 189/2/6 186/2/6 185/2/6
f 189/2/6 188/2/6 187/2/6
f 189/2/6 187/2/6 186/2/6
f 190/2/6 188/2/6 189/2/6
f 191/2/6 188/2/6 190/2/6
f 192/2/6 188/2/6 191/2/6
f 193/2/6 189/2/6 185/2/6
f 194/2/6 189/2/6 193/2/6
f 195/2/6 188/2/6 192/2/6
f 196/2/6 188/2/6 195/2/6
f 197/2/6 191/2/6 190/2/6
f 198/2/6 191/2/6 197/2/6
f 199/1/6 194/1/6 193/1/6
f 200/1/6 194/1/6 199/1/6
f 201/3/6 198/3/6 197/3/6
f 202/3/6 198/3/6 201/3/6
f 203/1/6 196/1/6 195/1/6
f 204/1/6 196/1/6 203/1/6
f 205/3/6 201/3/6 197/3/6
f 206/3/6 201/3/6 205/3/6
f 207/3/6 198/3/6 202/3/6
f 208/3/6 198/3/6 207/3/6
f 209/3/6 201/3/6 206/3/6
f 210/3/6 201/3/6 209/3/6
f 211/3/6 207/3/6 202/3/6
f 212/3/6 207/3/6 211/3/6
f 215/1/6 214/1/6 213/1/6
f 216/1/6 214/1/6 215/1/6
f 221/4/6 218/4/6 217/4/6
f 222/4/6 218/4/6 221/4/6
f 223/4/6 220/4/6 219/4/6
f 224/4/6 220/4/6 223/4/6
