# MagicaVoxel @ Ephtracy

# group
o 

# material
mtllib Pod Radar.mtl
usemtl palette

# normals
vn -1 0 0
vn 1 0 0
vn 0 -1 0
vn 0 1 0
vn 0 0 1
vn 0 0 -1

# texcoords
vt 0.0136719 0.5
vt 0.134766 0.5
vt 0.154297 0.5
vt 0.400391 0.5
vt 0.689453 0.5
vt 0.841797 0.5

# verts
v -5 -5 0
v -5 5 0
v -5 -5 -1
v -5 5 -1
v 5 -5 0
v 5 5 0
v 5 -5 -1
v 5 5 -1
v -5 -5 0
v -5 -5 -1
v 5 -5 0
v 5 -5 -1
v -5 5 0
v -5 5 -1
v -4 5 0
v -4 5 -1
v 3 5 0
v 3 5 -1
v 4 5 0
v 4 5 -1
v 5 5 0
v 5 5 -1
v -5 -5 0
v 5 -5 0
v -4 -4 0
v -3 -4 0
v -2 -4 0
v 2 -4 0
v 3 -4 0
v 4 -4 0
v -4 -3 0
v -3 -3 0
v -2 -3 0
v -1 -3 0
v 0 -3 0
v 1 -3 0
v 2 -3 0
v 3 -3 0
v 4 -3 0
v -4 -2 0
v -3 -2 0
v -2 -2 0
v -1 -2 0
v 0 -2 0
v 1 -2 0
v 2 -2 0
v -4 -1 0
v -3 -1 0
v -2 -1 0
v -1 -1 0
v 0 -1 0
v 1 -1 0
v 1 0 0
v 2 0 0
v -2 1 0
v -1 1 0
v 1 1 0
v 2 1 0
v -4 2 0
v -3 2 0
v -2 2 0
v -1 2 0
v 1 2 0
v 2 2 0
v -2 3 0
v -1 3 0
v 1 3 0
v 3 3 0
v 4 3 0
v -4 4 0
v 3 4 0
v 4 4 0
v -5 5 0
v -4 5 0
v 3 5 0
v 4 5 0
v 5 5 0
v -5 -5 -1
v 5 -5 -1
v -4 -4 -1
v -3 -4 -1
v -2 -4 -1
v 2 -4 -1
v 3 -4 -1
v 4 -4 -1
v -4 -3 -1
v -3 -3 -1
v -2 -3 -1
v -1 -3 -1
v 0 -3 -1
v 1 -3 -1
v 2 -3 -1
v 3 -3 -1
v 4 -3 -1
v -4 -2 -1
v -3 -2 -1
v -2 -2 -1
v -1 -2 -1
v 0 -2 -1
v 1 -2 -1
v 2 -2 -1
v -4 -1 -1
v -3 -1 -1
v -2 -1 -1
v -1 -1 -1
v 0 -1 -1
v 1 -1 -1
v 1 0 -1
v 2 0 -1
v -2 1 -1
v -1 1 -1
v 1 1 -1
v 2 1 -1
v -4 2 -1
v -3 2 -1
v -2 2 -1
v -1 2 -1
v 1 2 -1
v 2 2 -1
v -2 3 -1
v -1 3 -1
v 1 3 -1
v 3 3 -1
v 4 3 -1
v -4 4 -1
v 3 4 -1
v 4 4 -1
v -5 5 -1
v -4 5 -1
v 3 5 -1
v 4 5 -1
v 5 5 -1

# faces
f 1/6/1 2/6/1 3/6/1
f 3/6/1 2/6/1 4/6/1
f 7/6/2 6/6/2 5/6/2
f 8/6/2 6/6/2 7/6/2
f 9/6/3 10/6/3 11/6/3
f 11/6/3 10/6/3 12/6/3
f 15/6/4 14/6/4 13/6/4
f 16/6/4 14/6/4 15/6/4
f 17/1/4 16/1/4 15/1/4
f 18/1/4 16/1/4 17/1/4
f 19/3/4 18/3/4 17/3/4
f 20/3/4 18/3/4 19/3/4
f 21/6/4 20/6/4 19/6/4
f 22/6/4 20/6/4 21/6/4
f 23/6/5 24/6/5 25/6/5
f 25/6/5 24/6/5 26/6/5
f 26/6/5 24/6/5 27/6/5
f 27/6/5 24/6/5 28/6/5
f 28/6/5 24/6/5 29/6/5
f 29/6/5 24/6/5 30/6/5
f 23/6/5 25/6/5 31/6/5
f 25/2/5 26/2/5 31/2/5
f 26/5/5 27/5/5 32/5/5
f 31/2/5 26/2/5 32/2/5
f 27/1/5 28/1/5 33/1/5
f 32/5/5 27/5/5 33/5/5
f 33/1/5 28/1/5 34/1/5
f 34/1/5 28/1/5 35/1/5
f 35/1/5 28/1/5 36/1/5
f 28/2/5 29/2/5 37/2/5
f 36/1/5 28/1/5 37/1/5
f 29/3/5 30/3/5 38/3/5
f 37/2/5 29/2/5 38/2/5
f 30/6/5 24/6/5 39/6/5
f 38/3/5 30/3/5 39/3/5
f 23/6/5 31/6/5 40/6/5
f 31/1/5 32/1/5 40/1/5
f 32/5/5 33/5/5 41/5/5
f 40/1/5 32/1/5 41/1/5
f 33/5/5 34/5/5 41/5/5
f 41/5/5 34/5/5 42/5/5
f 34/6/5 35/6/5 43/6/5
f 42/5/5 34/5/5 43/5/5
f 35/5/5 36/5/5 44/5/5
f 43/6/5 35/6/5 44/6/5
f 36/2/5 37/2/5 45/2/5
f 44/5/5 36/5/5 45/5/5
f 37/5/5 38/5/5 46/5/5
f 45/2/5 37/2/5 46/2/5
f 23/6/5 40/6/5 47/6/5
f 40/5/5 41/5/5 47/5/5
f 41/6/5 42/6/5 48/6/5
f 47/5/5 41/5/5 48/5/5
f 42/5/5 43/5/5 49/5/5
f 48/6/5 42/6/5 49/6/5
f 43/4/5 44/4/5 50/4/5
f 49/5/5 43/5/5 50/5/5
f 44/2/5 45/2/5 51/2/5
f 50/4/5 44/4/5 51/4/5
f 45/6/5 46/6/5 52/6/5
f 51/2/5 45/2/5 52/2/5
f 49/4/5 50/4/5 53/4/5
f 52/6/5 46/6/5 53/6/5
f 51/4/5 52/4/5 53/4/5
f 50/4/5 51/4/5 53/4/5
f 46/5/5 38/5/5 54/5/5
f 53/6/5 46/6/5 54/6/5
f 48/6/5 49/6/5 55/6/5
f 49/4/5 53/4/5 55/4/5
f 53/4/5 54/4/5 55/4/5
f 55/4/5 54/4/5 56/4/5
f 56/4/5 54/4/5 57/4/5
f 54/5/5 38/5/5 58/5/5
f 57/4/5 54/4/5 58/4/5
f 23/6/5 47/6/5 59/6/5
f 47/1/5 48/1/5 59/1/5
f 48/6/5 55/6/5 60/6/5
f 59/1/5 48/1/5 60/1/5
f 55/5/5 56/5/5 61/5/5
f 60/6/5 55/6/5 61/6/5
f 56/4/5 57/4/5 62/4/5
f 61/5/5 56/5/5 62/5/5
f 57/6/5 58/6/5 63/6/5
f 62/4/5 57/4/5 63/4/5
f 58/5/5 38/5/5 64/5/5
f 63/6/5 58/6/5 64/6/5
f 60/5/5 61/5/5 65/5/5
f 61/2/5 62/2/5 65/2/5
f 59/5/5 60/5/5 65/5/5
f 62/6/5 63/6/5 66/6/5
f 65/2/5 62/2/5 66/2/5
f 63/5/5 64/5/5 67/5/5
f 66/6/5 63/6/5 67/6/5
f 64/5/5 38/5/5 68/5/5
f 67/5/5 64/5/5 68/5/5
f 38/1/5 39/1/5 68/1/5
f 39/6/5 24/6/5 69/6/5
f 68/1/5 39/1/5 69/1/5
f 59/5/5 65/5/5 70/5/5
f 66/5/5 67/5/5 70/5/5
f 68/5/5 69/5/5 70/5/5
f 65/5/5 66/5/5 70/5/5
f 23/6/5 59/6/5 70/6/5
f 67/5/5 68/5/5 70/5/5
f 70/5/5 69/5/5 71/5/5
f 69/6/5 24/6/5 72/6/5
f 71/5/5 69/5/5 72/5/5
f 23/6/5 70/6/5 73/6/5
f 70/1/5 71/1/5 74/1/5
f 73/6/5 70/6/5 74/6/5
f 71/3/5 72/3/5 75/3/5
f 74/1/5 71/1/5 75/1/5
f 72/6/5 24/6/5 76/6/5
f 75/3/5 72/3/5 76/3/5
f 76/6/5 24/6/5 77/6/5
f 80/6/6 79/6/6 78/6/6
f 81/6/6 79/6/6 80/6/6
f 82/6/6 79/6/6 81/6/6
f 83/6/6 79/6/6 82/6/6
f 84/6/6 79/6/6 83/6/6
f 85/6/6 79/6/6 84/6/6
f 86/6/6 80/6/6 78/6/6
f 86/2/6 81/2/6 80/2/6
f 87/5/6 82/5/6 81/5/6
f 87/2/6 81/2/6 86/2/6
f 88/1/6 83/1/6 82/1/6
f 88/5/6 82/5/6 87/5/6
f 89/1/6 83/1/6 88/1/6
f 90/1/6 83/1/6 89/1/6
f 91/1/6 83/1/6 90/1/6
f 92/2/6 84/2/6 83/2/6
f 92/1/6 83/1/6 91/1/6
f 93/3/6 85/3/6 84/3/6
f 93/2/6 84/2/6 92/2/6
f 94/6/6 79/6/6 85/6/6
f 94/3/6 85/3/6 93/3/6
f 95/6/6 86/6/6 78/6/6
f 95/1/6 87/1/6 86/1/6
f 96/5/6 88/5/6 87/5/6
f 96/1/6 87/1/6 95/1/6
f 96/5/6 89/5/6 88/5/6
f 97/5/6 89/5/6 96/5/6
f 98/6/6 90/6/6 89/6/6
f 98/5/6 89/5/6 97/5/6
f 99/5/6 91/5/6 90/5/6
f 99/6/6 90/6/6 98/6/6
f 100/2/6 92/2/6 91/2/6
f 100/5/6 91/5/6 99/5/6
f 101/5/6 93/5/6 92/5/6
f 101/2/6 92/2/6 100/2/6
f 102/6/6 95/6/6 78/6/6
f 102/5/6 96/5/6 95/5/6
f 103/6/6 97/6/6 96/6/6
f 103/5/6 96/5/6 102/5/6
f 104/5/6 98/5/6 97/5/6
f 104/6/6 97/6/6 103/6/6
f 105/4/6 99/4/6 98/4/6
f 105/5/6 98/5/6 104/5/6
f 106/2/6 100/2/6 99/2/6
f 106/4/6 99/4/6 105/4/6
f 107/6/6 101/6/6 100/6/6
f 107/2/6 100/2/6 106/2/6
f 108/4/6 105/4/6 104/4/6
f 108/6/6 101/6/6 107/6/6
f 108/4/6 107/4/6 106/4/6
f 108/4/6 106/4/6 105/4/6
f 109/5/6 93/5/6 101/5/6
f 109/6/6 101/6/6 108/6/6
f 110/6/6 104/6/6 103/6/6
f 110/4/6 108/4/6 104/4/6
f 110/4/6 109/4/6 108/4/6
f 111/4/6 109/4/6 110/4/6
f 112/4/6 109/4/6 111/4/6
f 113/5/6 93/5/6 109/5/6
f 113/4/6 109/4/6 112/4/6
f 114/6/6 102/6/6 78/6/6
f 114/1/6 103/1/6 102/1/6
f 115/6/6 110/6/6 103/6/6
f 115/1/6 103/1/6 114/1/6
f 116/5/6 111/5/6 110/5/6
f 116/6/6 110/6/6 115/6/6
f 117/4/6 112/4/6 111/4/6
f 117/5/6 111/5/6 116/5/6
f 118/6/6 113/6/6 112/6/6
f 118/4/6 112/4/6 117/4/6
f 119/5/6 93/5/6 113/5/6
f 119/6/6 113/6/6 118/6/6
f 120/5/6 116/5/6 115/5/6
f 120/2/6 117/2/6 116/2/6
f 120/5/6 115/5/6 114/5/6
f 121/6/6 118/6/6 117/6/6
f 121/2/6 117/2/6 120/2/6
f 122/5/6 119/5/6 118/5/6
f 122/6/6 118/6/6 121/6/6
f 123/5/6 93/5/6 119/5/6
f 123/5/6 119/5/6 122/5/6
f 123/1/6 94/1/6 93/1/6
f 124/6/6 79/6/6 94/6/6
f 124/1/6 94/1/6 123/1/6
f 125/5/6 120/5/6 114/5/6
f 125/5/6 122/5/6 121/5/6
f 125/5/6 124/5/6 123/5/6
f 125/5/6 121/5/6 120/5/6
f 125/6/6 114/6/6 78/6/6
f 125/5/6 123/5/6 122/5/6
f 126/5/6 124/5/6 125/5/6
f 127/6/6 79/6/6 124/6/6
f 127/5/6 124/5/6 126/5/6
f 128/6/6 125/6/6 78/6/6
f 129/1/6 126/1/6 125/1/6
f 129/6/6 125/6/6 128/6/6
f 130/3/6 127/3/6 126/3/6
f 130/1/6 126/1/6 129/1/6
f 131/6/6 79/6/6 127/6/6
f 131/3/6 127/3/6 130/3/6
f 132/6/6 79/6/6 131/6/6
